<svg width="28" height="28" viewBox="0 0 28 28" fill="none" xmlns="http://www.w3.org/2000/svg">
<rect x="1" y="1" width="26" height="26" rx="7" fill="#F8F6FF" stroke="#352958" stroke-width="2"/>
<path fill-rule="evenodd" clip-rule="evenodd" d="M15.24 9.5065L16.4303 10.6622L11.1524 15.9457C10.8876 16.2122 10.8876 16.6411 11.1524 16.9076C11.4037 17.1605 11.8236 17.1593 12.0722 16.9062L17.879 11.0908C18.7268 10.2379 18.7268 8.86817 17.879 8.0153C17.0702 7.20158 15.6391 7.21968 14.8464 8.01685L8.50839 14.3598C7.07743 15.7989 7.07743 18.1096 8.50839 19.5487C9.89792 20.9461 12.2849 20.9233 13.6527 19.5474L21.0448 12.1462L22.2352 13.3017L14.8446 20.7016C12.8281 22.73 9.36507 22.763 7.31533 20.7017C5.24752 18.6222 5.24752 15.2863 7.31676 13.2054L13.6548 6.86242C15.0945 5.4146 17.6016 5.38289 19.0723 6.86254C20.5566 8.35582 20.5566 10.7502 19.071 12.2449L13.2676 18.0568C12.3699 18.9708 10.8681 18.975 9.95905 18.0603C9.0578 17.1534 9.0578 15.6999 9.96055 14.7916L15.24 9.5065Z" fill="#352958"/>
</svg>
