<svg width="26" height="25" viewBox="0 0 26 25" fill="none" xmlns="http://www.w3.org/2000/svg">
<rect x="1" y="1" width="23.2" height="22.9999" rx="7" fill="#F8F6FF" stroke="#352958" stroke-width="2"/>
<g clip-path="url(#clip0_271_439)">
<path fill-rule="evenodd" clip-rule="evenodd" d="M17.7932 13.5982C18.2708 14.0608 18.775 14.4961 19.2034 15.0054C19.3926 15.2318 19.5718 15.4653 19.7089 15.728C19.9031 16.1014 19.7272 16.5123 19.3897 16.5345L17.2919 16.5336C16.7508 16.5781 16.3192 16.3621 15.9563 15.9951C15.6658 15.7016 15.3968 15.3892 15.1175 15.0858C15.003 14.9618 14.8832 14.8451 14.74 14.7529C14.4537 14.5685 14.2051 14.6249 14.0414 14.9212C13.8747 15.2226 13.8369 15.5563 13.8206 15.8922C13.7981 16.3823 13.6488 16.5111 13.1526 16.5336C12.0921 16.5832 11.0857 16.424 10.1507 15.8933C9.32646 15.4254 8.68727 14.7649 8.13092 14.0172C7.0477 12.5612 6.21818 10.9612 5.47263 9.31647C5.30481 8.94591 5.42754 8.74699 5.83968 8.73995C6.52405 8.72676 7.20833 8.7277 7.89351 8.73901C8.17166 8.74305 8.3558 8.90132 8.4632 9.162C8.83346 10.0652 9.28653 10.9245 9.85522 11.721C10.0067 11.9331 10.1611 12.1452 10.381 12.2944C10.6243 12.4597 10.8095 12.4049 10.924 12.1361C10.9966 11.9656 11.0284 11.782 11.0448 11.5994C11.099 10.9712 11.1061 10.3442 11.011 9.7182C10.9526 9.32755 10.7308 9.07465 10.3379 9.00073C10.1374 8.96304 10.1672 8.88902 10.2643 8.77548C10.433 8.57966 10.5915 8.45776 10.9077 8.45776H13.2786C13.6518 8.53084 13.7347 8.69719 13.7858 9.06977L13.7878 11.6824C13.7838 11.8266 13.8605 12.2547 14.1223 12.3501C14.3319 12.4181 14.4701 12.2518 14.5958 12.1199C15.1635 11.5222 15.5686 10.8159 15.9306 10.0845C16.0912 9.76284 16.2293 9.42884 16.3631 9.09512C16.4623 8.84748 16.6179 8.72563 16.8991 8.73103L19.1809 8.73305C19.2486 8.73305 19.317 8.73403 19.3826 8.74516C19.7671 8.81016 19.8724 8.97426 19.7537 9.34675C19.5666 9.93116 19.2025 10.4182 18.8465 10.9074C18.466 11.4298 18.059 11.9343 17.6816 12.4597C17.3349 12.9396 17.3625 13.1814 17.7932 13.5982Z" fill="#352958"/>
</g>
<defs>
<clipPath id="clip0_271_439">
<rect width="14.4" height="14.2857" fill="white" transform="translate(5.40002 5.35712)"/>
</clipPath>
</defs>
</svg>
