<svg width="26" height="25" viewBox="0 0 26 25" fill="none" xmlns="http://www.w3.org/2000/svg">
<rect x="1.79999" y="1.00012" width="23.2" height="22.9999" rx="7" fill="#F8F6FF" stroke="#352958" stroke-width="2"/>
<g clip-path="url(#clip0_271_448)">
<path d="M19.1188 9.68246C19.0886 9.00384 18.9733 8.63341 18.8773 8.38827C18.7645 8.08554 18.5862 7.81311 18.3527 7.58681C18.1276 7.35532 17.8501 7.17816 17.5453 7.06651C17.2982 6.97124 16.9274 6.85686 16.241 6.82684C15.5021 6.79408 15.2798 6.78589 13.4015 6.78589C11.5258 6.78589 11.3033 6.79408 10.5619 6.82684C9.87827 6.85686 9.50469 6.97124 9.25738 7.06651C8.95257 7.17816 8.67802 7.35532 8.45024 7.58681C8.21393 7.81038 8.03539 8.08554 7.92288 8.38827C7.82659 8.63341 7.71133 9.00138 7.68134 9.68246C7.64805 10.4154 7.64008 10.639 7.64008 12.5001C7.64008 14.3613 7.64805 14.5822 7.68134 15.3178C7.71133 15.9962 7.82659 16.3669 7.92288 16.6123C8.03539 16.9145 8.21393 17.1872 8.44749 17.4132C8.67252 17.645 8.94982 17.8221 9.25463 17.9338C9.50194 18.0291 9.8725 18.1437 10.5591 18.1735C11.2978 18.2062 11.5231 18.2144 13.3987 18.2144C15.2743 18.2144 15.4966 18.2062 16.2383 18.1735C16.9219 18.1437 17.2955 18.0291 17.5425 17.9338C18.1549 17.6993 18.641 17.2172 18.8773 16.6093C18.9733 16.3642 19.0886 15.9962 19.1188 15.3151C19.1518 14.5794 19.1601 14.3613 19.1601 12.5001C19.1601 10.639 19.1518 10.4181 19.1188 9.68246ZM13.3959 16.0781C11.4023 16.0781 9.78474 14.473 9.78474 12.4947C9.78474 10.5164 11.4023 8.9113 13.3959 8.9113C15.3896 8.9113 17.0072 10.5164 17.0072 12.4947C17.0072 14.473 15.3896 16.0781 13.3959 16.0781ZM17.1499 9.6063C16.6842 9.6063 16.3068 9.2315 16.3068 8.76962C16.3068 8.30747 16.6842 7.93322 17.1499 7.93322C17.6154 7.93322 17.9931 8.30747 17.9931 8.76962C17.9931 9.2315 17.6154 9.6063 17.1499 9.6063Z" fill="#352958"/>
<path d="M15.052 14.1384C15.9668 13.2307 15.9668 11.759 15.052 10.8512C14.1372 9.94349 12.6541 9.94349 11.7393 10.8512C10.8245 11.759 10.8245 13.2307 11.7393 14.1384C12.6541 15.0461 14.1372 15.0461 15.052 14.1384Z" fill="#352958"/>
</g>
<defs>
<clipPath id="clip0_271_448">
<rect width="11.52" height="11.4285" fill="white" transform="translate(7.64008 6.78589)"/>
</clipPath>
</defs>
</svg>
