<?xml version="1.0" encoding="UTF-8"?>
<svg xmlns="http://www.w3.org/2000/svg" xmlns:xlink="http://www.w3.org/1999/xlink" xml:space="preserve" width="1025px" height="1053px" version="1.0" style="shape-rendering:geometricPrecision; text-rendering:geometricPrecision; image-rendering:optimizeQuality; fill-rule:evenodd; clip-rule:evenodd" viewBox="0 0 492 506">
 <defs>
  <style type="text/css">
   
    .fil0 {fill:#9D9E9E}
    .fil1 {fill:#FEFEFE}
   
  </style>
 </defs>
 <g id="Layer_x0020_1">
  <metadata id="CorelCorpID_0Corel-Layer"></metadata>
  <path class="fil0" d="M88 395c-30,-37 -49,-83 -49,-134 0,-99 69,-181 161,-203l6 -38c-116,20 -203,120 -203,241 0,67 27,127 70,172l15 -38zm160 111c62,0 118,-23 162,-61l-16 -40 -293 0 -15 40c43,38 99,61 162,61zm-69 -174l43 0 26 -189 25 189 43 0 -45 -330 -47 0 -45 330zm-39 17c98,0 117,0 215,0l15 40c-108,0 -137,0 -245,0l15 -40zm282 84c44,-45 70,-105 70,-172 0,-121 -87,-221 -202,-241l5 37 0 1c92,22 161,104 161,203 0,51 -19,97 -49,134l15 38z"></path>
  <path class="fil1" d="M85 392c-30,-36 -48,-82 -48,-133 0,-99 68,-182 161,-203l5 -39c-115,20 -203,121 -203,242 0,67 27,127 70,171l15 -38zm160 112c62,0 119,-24 162,-62l-16 -39 -293 0 -15 39c43,38 100,62 162,62zm-69 -175l43 0 26 -188 26 188 43 0 -46 -329 -47 0 -45 329zm-39 18c98,0 117,0 216,0l14 40c-108,0 -137,0 -245,0l15 -40zm282 83c44,-44 71,-104 71,-171 0,-121 -88,-222 -203,-241l5 36 0 2c92,22 161,104 161,203 0,51 -18,97 -49,133l15 38z"></path>
 </g>
</svg>
